<svg width="22" height="22" viewBox="0 0 22 22" fill="none" xmlns="http://www.w3.org/2000/svg">
<g clip-path="url(#clip0_91_3610)">
<path d="M11 9V13.26H16.92C16.66 14.63 15.8799 15.7901 14.71 16.57L18.2799 19.3401C20.3599 17.4201 21.5599 14.6001 21.5599 11.2501C21.5599 10.4701 21.49 9.72005 21.3599 9.00012L11 9Z" fill="#4285F4"/>
<path d="M4.8349 13.0938L4.02973 13.7101L1.17969 15.9301C2.98968 19.52 6.69941 22.0001 10.9994 22.0001C13.9693 22.0001 16.4593 21.0201 18.2793 19.3401L14.7093 16.5701C13.7293 17.2301 12.4793 17.6301 10.9994 17.6301C8.13939 17.6301 5.70946 15.7001 4.8394 13.1001L4.8349 13.0938Z" fill="#34A853"/>
<path d="M1.17991 6.07007C0.429955 7.55001 0 9.22003 0 11C0 12.78 0.429955 14.45 1.17991 15.9299C1.17991 15.9399 4.83998 13.0899 4.83998 13.0899C4.61998 12.4299 4.48994 11.73 4.48994 10.9999C4.48994 10.2698 4.61998 9.56983 4.83998 8.90984L1.17991 6.07007Z" fill="#FBBC05"/>
<path d="M10.9996 4.38C12.6196 4.38 14.0596 4.93998 15.2096 6.02L18.3596 2.87004C16.4496 1.09007 13.9696 0 10.9996 0C6.69963 0 2.98968 2.47 1.17969 6.07001L4.83964 8.91001C5.70959 6.30998 8.13962 4.38 10.9996 4.38Z" fill="#EA4335"/>
</g>
<defs>
<clipPath id="clip0_91_3610">
<rect width="22" height="22" fill="white"/>
</clipPath>
</defs>
</svg>
