<svg width="20" height="21" viewBox="0 0 20 21" fill="none" xmlns="http://www.w3.org/2000/svg">
<path d="M13.0271 3.36359V3.36035H13.8711L14.1794 3.42194C14.385 3.46193 14.5717 3.51433 14.7394 3.57917C14.9071 3.644 15.0694 3.71964 15.2263 3.80608C15.3832 3.89252 15.5255 3.9806 15.6532 4.07028C15.7798 4.15889 15.8934 4.2529 15.9941 4.35231C16.0936 4.4528 16.2489 4.47873 16.4599 4.43011C16.6709 4.38148 16.8981 4.31394 17.1416 4.2275C17.385 4.14106 17.6258 4.04381 17.8638 3.93575C18.1019 3.82769 18.2469 3.75908 18.2988 3.7299C18.3497 3.69966 18.3768 3.68345 18.38 3.68128L18.3832 3.67642L18.3995 3.66831L18.4157 3.66021L18.4319 3.6521L18.4482 3.644L18.4514 3.63914L18.4563 3.63589L18.4612 3.63265L18.4644 3.62779L18.4806 3.62293L18.4968 3.61969L18.4936 3.644L18.4887 3.66831L18.4806 3.69262L18.4725 3.71694L18.4644 3.73314L18.4563 3.74935L18.4482 3.77367C18.4427 3.78987 18.4373 3.81148 18.4319 3.8385C18.4265 3.86552 18.3751 3.97356 18.2777 4.16267C18.1803 4.35177 18.0586 4.54357 17.9125 4.73807C17.7665 4.93257 17.6355 5.07951 17.5198 5.17893C17.4029 5.27943 17.3255 5.34966 17.2876 5.38964C17.2498 5.4307 17.2038 5.46851 17.1497 5.5031L17.0685 5.55659L17.0523 5.5647L17.0361 5.5728L17.0328 5.57766L17.028 5.5809L17.0231 5.58415L17.0198 5.58901L17.0036 5.59711L16.9874 5.60522L16.9841 5.61008L16.9793 5.61332L16.9744 5.61656L16.9711 5.62142L16.9679 5.62629L16.963 5.62953L16.9582 5.63277L16.9549 5.63763H17.0361L17.4905 5.54038C17.7935 5.47555 18.083 5.39721 18.3589 5.30536L18.7971 5.15948L18.8458 5.14328L18.8702 5.13517L18.8864 5.12707L18.9026 5.11896L18.9188 5.11086L18.9351 5.10276L18.9675 5.09789L19 5.09465V5.12707L18.9919 5.13031L18.9838 5.13517L18.9805 5.14003L18.9757 5.14328L18.9708 5.14652L18.9675 5.15138L18.9643 5.15624L18.9594 5.15948L18.9546 5.16273L18.9513 5.16759L18.9481 5.17245L18.9432 5.17569L18.9351 5.1919L18.927 5.20811L18.9221 5.21135C18.9199 5.21459 18.8512 5.30643 18.716 5.48689C18.5807 5.66843 18.5077 5.76027 18.4968 5.76244C18.486 5.76568 18.4709 5.78189 18.4514 5.81106C18.433 5.84131 18.3183 5.9618 18.1073 6.17251C17.8963 6.38322 17.6897 6.57069 17.4873 6.73494C17.2839 6.90027 17.1811 7.10341 17.1789 7.34438C17.1757 7.58426 17.1632 7.85549 17.1416 8.15804C17.1199 8.4606 17.0794 8.78746 17.0198 9.13865C16.9603 9.48984 16.8684 9.88694 16.7439 10.33C16.6195 10.773 16.468 11.2052 16.2894 11.6266C16.1109 12.0481 15.9243 12.4262 15.7295 12.7612C15.5347 13.0962 15.3562 13.3799 15.1939 13.6122C15.0316 13.8445 14.8666 14.0633 14.6988 14.2686C14.5311 14.4739 14.319 14.7052 14.0626 14.9623C13.8051 15.2184 13.6644 15.3589 13.6406 15.3837C13.6157 15.4075 13.5097 15.4961 13.3225 15.6496C13.1363 15.8041 12.9362 15.9586 12.7219 16.1131C12.5088 16.2666 12.3129 16.3946 12.1344 16.4973C11.9558 16.5999 11.7405 16.7171 11.4884 16.849C11.2373 16.9819 10.9657 17.1051 10.6736 17.2185C10.3814 17.332 10.073 17.4374 9.74842 17.5346C9.42381 17.6319 9.11001 17.7075 8.80703 17.7615C8.50407 17.8155 8.16051 17.8615 7.77637 17.8993L7.20018 17.956V17.9641H6.14518V17.956L6.00721 17.9479C5.91525 17.9425 5.8395 17.9371 5.77998 17.9317C5.72048 17.9263 5.49594 17.8966 5.1064 17.8426C4.71686 17.7885 4.41119 17.7345 4.18936 17.6805C3.96755 17.6265 3.63751 17.5238 3.19928 17.3725C2.76105 17.2212 2.38611 17.0683 2.07448 16.9138C1.76394 16.7604 1.56917 16.6631 1.49017 16.6221C1.41226 16.5821 1.32462 16.5324 1.22723 16.473L1.08115 16.3838L1.07792 16.3789L1.07304 16.3757L1.06817 16.3725L1.06492 16.3676L1.04869 16.3595L1.03246 16.3514L1.02923 16.3465L1.02435 16.3433L1.01948 16.34L1.01623 16.3352L1.013 16.3303L1.00812 16.3271H1V16.2947L1.01623 16.2979L1.03246 16.3028L1.1055 16.3109C1.15419 16.3163 1.28675 16.3244 1.50316 16.3352C1.71958 16.346 1.9495 16.346 2.19297 16.3352C2.43643 16.3244 2.68531 16.3001 2.93959 16.2622C3.19387 16.2244 3.49414 16.1596 3.8404 16.0677C4.18667 15.9759 4.50479 15.8668 4.79479 15.7403C5.08369 15.6128 5.28927 15.5177 5.41156 15.4551C5.53274 15.3935 5.71777 15.2789 5.96664 15.1114L6.33995 14.8602L6.34319 14.8554L6.34806 14.8521L6.35295 14.8489L6.35618 14.844L6.35942 14.8391L6.36429 14.8359L6.36918 14.8327L6.37241 14.8278L6.38864 14.8229L6.40487 14.8197L6.40812 14.8035L6.41298 14.7873L6.41787 14.784L6.4211 14.7792L6.29125 14.7711C6.20469 14.7657 6.12083 14.7603 6.03968 14.7549C5.95852 14.7495 5.83139 14.7252 5.65825 14.6819C5.48513 14.6387 5.29848 14.5739 5.09829 14.4874C4.89811 14.401 4.70334 14.2983 4.51398 14.1795C4.32463 14.0606 4.18774 13.9617 4.10334 13.8829C4.02002 13.805 3.91181 13.6948 3.77872 13.5522C3.64671 13.4085 3.53201 13.261 3.43463 13.1097C3.33724 12.9584 3.24419 12.7839 3.15547 12.5862L3.02074 12.2912L3.01262 12.2669L3.00451 12.2426L2.99964 12.2264L2.99639 12.2101L3.02074 12.2134L3.04509 12.2182L3.22362 12.2426C3.34266 12.2588 3.52932 12.2642 3.78359 12.2588C4.03788 12.2534 4.21371 12.2426 4.31109 12.2264C4.40848 12.2101 4.46799 12.1993 4.48963 12.1939L4.52209 12.1858L4.56267 12.1777L4.60325 12.1696L4.60649 12.1648L4.61136 12.1615L4.61625 12.1583L4.61948 12.1534L4.58702 12.1453L4.55455 12.1372L4.52209 12.1291L4.48963 12.121L4.45717 12.1129C4.43553 12.1075 4.39767 12.0967 4.34355 12.0805C4.28946 12.0643 4.14338 12.0048 3.90532 11.9022C3.66728 11.7995 3.47791 11.6996 3.33724 11.6023C3.19622 11.5048 3.06176 11.3981 2.93472 11.283C2.80812 11.1663 2.66908 11.0161 2.51758 10.8324C2.3661 10.6487 2.23085 10.4353 2.11181 10.1922C1.99279 9.94907 1.90352 9.71675 1.844 9.49523C1.78472 9.27502 1.74561 9.04987 1.72716 8.82259L1.69793 8.48221L1.71416 8.48545L1.73039 8.49031L1.74662 8.49842L1.76285 8.50652L1.77908 8.51463L1.79531 8.52273L2.04689 8.63619C2.21462 8.71183 2.42291 8.77667 2.67178 8.83069C2.92066 8.88471 3.06943 8.91444 3.11812 8.91984L3.19116 8.92794H3.33724L3.33401 8.92308L3.32913 8.91984L3.32426 8.91659L3.32101 8.91173L3.31778 8.90687L3.31289 8.90363L3.30803 8.90039L3.30478 8.89552L3.28855 8.88742L3.27232 8.87931L3.26909 8.87445L3.2642 8.87121L3.25933 8.86797L3.25609 8.86311L3.23986 8.855L3.22362 8.8469L3.22039 8.84204C3.21715 8.83986 3.17061 8.80529 3.08079 8.7383C2.99206 8.67023 2.89901 8.58217 2.80162 8.4741C2.70424 8.36604 2.60685 8.25258 2.50947 8.13373C2.4119 8.0146 2.32501 7.88714 2.24977 7.75283C2.17404 7.61777 2.09396 7.44594 2.00956 7.2374C1.92625 7.02994 1.86294 6.82085 1.81966 6.61014C1.77639 6.39943 1.75204 6.19143 1.74662 5.98611C1.74121 5.7808 1.74662 5.60522 1.76285 5.45934C1.77908 5.31346 1.81154 5.14867 1.86023 4.96498C1.90893 4.78129 1.97927 4.58679 2.07124 4.38148L2.2092 4.07352L2.21731 4.04921L2.22543 4.0249L2.23031 4.02165L2.23354 4.01679L2.23679 4.01193L2.24166 4.00869L2.24654 4.01193L2.24977 4.01679L2.25302 4.02165L2.25789 4.0249L2.26278 4.02814L2.26601 4.033L2.26925 4.03786L2.27412 4.0411L2.28224 4.05731L2.29035 4.07352L2.29524 4.07676L2.29847 4.08163L2.51758 4.32475C2.66366 4.48684 2.8368 4.66784 3.03697 4.86773C3.23716 5.06763 3.34807 5.17137 3.3697 5.17893C3.39135 5.18757 3.41839 5.21242 3.45086 5.25349C3.48332 5.29348 3.59153 5.38911 3.77547 5.54038C3.95943 5.69166 4.20019 5.86726 4.49775 6.06716C4.79532 6.26705 5.12534 6.46426 5.48783 6.65876C5.85033 6.85326 6.23987 7.02885 6.65645 7.18554C7.07304 7.34222 7.3652 7.44487 7.53291 7.4935C7.70064 7.54212 7.98738 7.60425 8.39315 7.67989C8.79892 7.75554 9.10461 7.80416 9.31019 7.82577C9.51579 7.84737 9.65646 7.85981 9.73219 7.86305L9.84581 7.86629L9.84258 7.84198L9.83769 7.81766L9.80523 7.61506C9.78359 7.47999 9.77277 7.29089 9.77277 7.04776C9.77277 6.80464 9.79171 6.58043 9.82958 6.37512C9.86746 6.1698 9.92427 5.9618 10 5.75109C10.0757 5.54038 10.1499 5.37126 10.2224 5.24377C10.296 5.11734 10.3923 4.97309 10.5113 4.811C10.6303 4.64892 10.7845 4.48144 10.9739 4.30854C11.1632 4.13565 11.3796 3.98167 11.6231 3.8466C11.8665 3.71154 12.0911 3.60888 12.2967 3.53864C12.5023 3.46841 12.6754 3.42248 12.8161 3.40087C12.9567 3.37927 13.0271 3.36683 13.0271 3.36359Z" fill="#5D5A88"/>
</svg>
